<svg viewBox="0 0 195 148" version="1.1" xmlns="http://www.w3.org/2000/svg" xmlns:xlink="http://www.w3.org/1999/xlink" xml:space="preserve"  style="fill-rule:evenodd;clip-rule:evenodd;stroke-linejoin:round;stroke-miterlimit:2;">
    <g transform="matrix(1,0,0,1,-352,-190.478)">
        <g transform="matrix(0.999391,-0.0348995,0.0348995,0.999391,-6.66077,12.4046)">
            <path d="M546,204.25C546,200.249 542.751,197 538.75,197L359.25,197C355.249,197 352,200.249 352,204.25L352,218.75C352,222.751 355.249,226 359.25,226L538.75,226C542.751,226 546,222.751 546,218.75L546,204.25Z" style="fill:#ec058c;"/>
        </g>
        <g transform="matrix(1,0,0,1,0,37.3333)">
            <path d="M546,204.25C546,200.249 542.751,197 538.75,197L359.25,197C355.249,197 352,200.249 352,204.25L352,218.75C352,222.751 355.249,226 359.25,226L538.75,226C542.751,226 546,222.751 546,218.75L546,204.25Z"/>
        </g>
        <g transform="matrix(1,0,0,1,0,74.6667)">
            <path d="M546,204.25C546,200.249 542.751,197 538.75,197L359.25,197C355.249,197 352,200.249 352,204.25L352,218.75C352,222.751 355.249,226 359.25,226L538.75,226C542.751,226 546,222.751 546,218.75L546,204.25Z"/>
        </g>
        <g transform="matrix(1,0,0,1,0,112)">
            <path d="M546,204.25C546,200.249 542.751,197 538.75,197L359.25,197C355.249,197 352,200.249 352,204.25L352,218.75C352,222.751 355.249,226 359.25,226L538.75,226C542.751,226 546,222.751 546,218.75L546,204.25Z"/>
        </g>
    </g>
</svg>
